<svg width="253" height="253" viewBox="0 0 253 253" fill="none" xmlns="http://www.w3.org/2000/svg">
<circle cx="126.042" cy="126.042" r="126.042" fill="#D9D9D9"/>
<path d="M85.7869 60.6367L66.5161 86.4914V176.983C66.5161 180.411 67.8697 183.7 70.279 186.124C72.6883 188.548 75.956 189.91 79.3633 189.91H169.294C172.701 189.91 175.969 188.548 178.378 186.124C180.788 183.7 182.141 180.411 182.141 176.983V86.4914L162.87 60.6367H85.7869Z" stroke="#EA1D2C" stroke-width="12.9274" stroke-linecap="round" stroke-linejoin="round"/>
<path d="M66.5161 86.4915H182.141" stroke="#EA1D2C" stroke-width="12.9274" stroke-linecap="round" stroke-linejoin="round"/>
<path d="M150.024 112.346C150.024 119.203 147.317 125.78 142.498 130.628C137.68 135.477 131.144 138.201 124.33 138.201C117.515 138.201 110.98 135.477 106.161 130.628C101.342 125.78 98.6353 119.203 98.6353 112.346" stroke="#EA1D2C" stroke-width="12.9274" stroke-linecap="round" stroke-linejoin="round"/>
</svg>
